<svg width="37.333332" height="37.333496" viewBox="0 0 37.3333 37.3335" fill="none" xmlns="http://www.w3.org/2000/svg" xmlns:xlink="http://www.w3.org/1999/xlink">
	<desc>
			Created with Pixso.
	</desc>
	<defs/>
	<path id="Vector" d="M27 2C31.6024 2 35.3333 5.73096 35.3333 10.3335L35.3333 27C35.3333 31.6025 31.6024 35.3335 27 35.3335L10.3333 35.3335C5.73096 35.3335 2 31.6025 2 27L2 10.3335C2 5.73096 5.73096 2 10.3333 2L27 2Z" stroke="#000000" stroke-opacity="1.000000" stroke-width="4.000000" stroke-linejoin="round"/>
	<path id="Vector" d="M24.6563 21.665C24.0105 22.9097 22.9886 23.9189 21.7361 24.5493C20.4836 25.1797 19.0641 25.3994 17.6797 25.1763C16.2952 24.9536 15.0163 24.2998 14.0248 23.3086C13.0332 22.3169 12.3796 21.0381 12.1568 19.6533C11.934 18.269 12.1535 16.8496 12.7839 15.5972C13.4144 14.3447 14.4237 13.3228 15.6683 12.6768C16.913 12.0312 18.3296 11.7939 19.7167 12C21.1316 12.2095 22.4415 12.8691 23.4529 13.8804C24.4643 14.8916 25.1236 16.2017 25.3334 17.6167C25.5391 19.0034 25.3021 20.4204 24.6563 21.665Z" stroke="#000000" stroke-opacity="1.000000" stroke-width="4.000000" stroke-linejoin="round"/>
	<path id="Vector" d="M27.8334 9.50049L27.85 9.50049" stroke="#000000" stroke-opacity="1.000000" stroke-width="4.000000" stroke-linejoin="round" stroke-linecap="round"/>
</svg>
