<svg width="40.666679" height="34.118652" viewBox="0 0 40.6667 34.1187" fill="none" xmlns="http://www.w3.org/2000/svg" xmlns:xlink="http://www.w3.org/1999/xlink">
	<desc>
			Created with Pixso.
	</desc>
	<defs/>
	<path id="Vector" d="M33.4333 4.57666C32.4296 3.42236 31.0956 2.60449 29.6117 2.23291C28.1279 1.86182 26.5658 1.95508 25.1368 2.50049C23.7078 3.0459 22.4807 4.01709 21.6216 5.28271C20.7625 6.54834 20.3128 8.04688 20.3333 9.57666L20.3333 11.2432C17.4044 11.3193 14.5021 10.6694 11.885 9.35205C9.26791 8.03516 7.0172 6.09082 5.33334 3.69336C5.33334 3.69336 -1.33333 18.6934 13.6667 25.3599C10.2342 27.6899 6.14527 28.8579 2.00001 28.6934C17 37.0264 35.3333 28.6934 35.3333 9.52637C35.3318 9.0625 35.2872 8.59912 35.2 8.14307C36.901 6.46582 38.1014 4.34766 38.6667 2.02637C37.0707 3.15234 35.3035 4.01318 33.4333 4.57666Z" stroke="#000000" stroke-opacity="1.000000" stroke-width="4.000000" stroke-linejoin="round"/>
</svg>
